<!DOCTYPE svg PUBLIC "-//W3C//DTD SVG 1.1//EN" "http://www.w3.org/Graphics/SVG/1.1/DTD/svg11.dtd">
<!-- Uploaded to: SVG Repo, www.svgrepo.com, Transformed by: SVG Repo Mixer Tools -->
<svg height="800px" width="800px" version="1.1" id="_x32_" xmlns="http://www.w3.org/2000/svg" xmlns:xlink="http://www.w3.org/1999/xlink" viewBox="0 0 512 512" xml:space="preserve" fill="#ffffff" stroke="#ffffff">
<g id="SVGRepo_bgCarrier" stroke-width="0"/>
<g id="SVGRepo_tracerCarrier" stroke-linecap="round" stroke-linejoin="round"/>
<g id="SVGRepo_iconCarrier"> <style type="text/css"> .st0{fill:#00ff7b;} </style> <g> <path class="st0" d="M512,292.069h-0.442l-81.151-186.586c9.816,0.74,17.961,1.439,24.078,2.012l2.362-25.581 c-27.16-2.514-92.696-7.342-163.61-8.702c-1.774-6.657-5.298-12.639-9.998-17.348c-6.932-6.953-16.621-11.272-27.232-11.272 c-10.615,0-20.327,4.319-27.26,11.272c-4.701,4.709-8.224,10.691-9.971,17.348c-70.91,1.36-136.453,6.189-163.633,8.702 l2.39,25.597c6.085-0.572,14.254-1.257,24.046-2.004h0.003L0.45,292.069H0c0.06,0.207,0.131,0.398,0.191,0.589l-0.167,0.389 l0.334,0.143c12.567,39.836,49.786,68.734,93.782,68.734c43.992,0,81.203-28.89,93.774-68.734l0.335-0.143l-0.164-0.389 c0.06-0.192,0.132-0.382,0.188-0.589h-0.442l-81.882-188.28c31.566-2.052,72.396-4.137,114.884-4.948 c1.93,4.327,4.622,8.233,7.915,11.518c3.361,3.388,7.37,6.141,11.837,8.097v271.086c-17.393,0-30.943,0-30.943,0 s-7.413,46.342-40.794,53.756v24.11h174.308v-24.11c-33.38-7.414-40.798-53.756-40.798-53.756s-13.55,0-30.942,0V118.456h0.004 c4.45-1.956,8.46-4.709,11.82-8.097c3.317-3.285,6.014-7.191,7.938-11.518c42.488,0.811,83.31,2.896,114.881,4.948l-81.883,188.28 h-0.449c0.06,0.207,0.131,0.398,0.191,0.589l-0.167,0.389l0.334,0.143c12.568,39.836,49.786,68.734,93.782,68.734 c43.992,0,81.202-28.89,93.774-68.734l0.334-0.143l-0.163-0.389C511.873,292.467,511.945,292.276,512,292.069z M171.015,292.069 H17.253L94.14,115.291L171.015,292.069z M270.525,97.647c-0.334,0.335-0.668,0.644-1.026,0.923 c-3.604,3.214-8.28,5.107-13.491,5.107c-5.218,0-9.891-1.893-13.519-5.107c-0.357-0.278-0.691-0.588-1.025-0.923 c-3.723-3.722-6.01-8.813-6.01-14.524c0-3.722,0.974-7.191,2.692-10.197c0.927-1.591,2.032-3.039,3.318-4.343 c3.75-3.722,8.837-6.006,14.544-6.006c5.704,0,10.79,2.283,14.517,6.006c1.309,1.304,2.414,2.752,3.318,4.343 c1.741,3.006,2.72,6.475,2.72,10.197C276.562,88.834,274.276,93.925,270.525,97.647z M340.985,292.069l76.883-176.778 l76.88,176.778H340.985z"/> </g> </g>
</svg>